HIERARCHY
ROOT SpineBase
{
  OFFSET 0.000000 0.000000 0.000000
  CHANNELS 6 Xposition Yposition Zposition Zrotation Xrotation Yrotation
  JOINT SpineMid
  {
    OFFSET 0.000000 31.377924 0.000000
    CHANNELS 3 Zrotation Xrotation Yrotation
    JOINT SpineShoulder
    {
      OFFSET 0.081773 23.256010 -0.714315
      CHANNELS 3 Zrotation Xrotation Yrotation
      JOINT Neck
      {
        OFFSET 0.054474 7.675410 -0.531885
        CHANNELS 3 Zrotation Xrotation Yrotation
        JOINT Head
        {
          OFFSET -3.884807 12.963306 0.202923
          CHANNELS 3 Zrotation Xrotation Yrotation
          End Site
          {
            OFFSET 0 0 0
          }
        }
      }
      JOINT ShoulderLeft
      {
        OFFSET -16.591566 -4.856925 7.643912
        CHANNELS 3 Zrotation Xrotation Yrotation
        JOINT ElbowLeft
        {
          OFFSET -5.066154 -24.050869 4.575837
          CHANNELS 3 Zrotation Xrotation Yrotation
          JOINT WristLeft
          {
            OFFSET 5.025351 -16.173293 -19.181923
            CHANNELS 3 Zrotation Xrotation Yrotation
            JOINT HandLeft
            {
              OFFSET 3.223209 -4.315859 -2.412168
              CHANNELS 3 Zrotation Xrotation Yrotation
              JOINT HandTipLeft
              {
                OFFSET -1.554779 -4.318465 -4.990136
                CHANNELS 3 Zrotation Xrotation Yrotation
                End Site
                {
                  OFFSET 0 0 0
                }
              }
              JOINT ThumbLeft
              {
                OFFSET -3.028674 3.019366 -6.015119
                CHANNELS 3 Zrotation Xrotation Yrotation
                End Site
                {
                  OFFSET 0 0 0
                }
              }
            }
          }
        }
      }
      JOINT ShoulderRight
      {
        OFFSET 12.632814 -4.989041 -8.923398
        CHANNELS 3 Zrotation Xrotation Yrotation
        JOINT ElbowRight
        {
          OFFSET 8.658032 -23.129434 -2.135416
          CHANNELS 3 Zrotation Xrotation Yrotation
          JOINT WristRight
          {
            OFFSET -17.853619 -18.128356 -7.408993
            CHANNELS 3 Zrotation Xrotation Yrotation
            JOINT HandRight
            {
              OFFSET -3.880182 -3.797322 2.993052
              CHANNELS 3 Zrotation Xrotation Yrotation
              JOINT HandTipRight
              {
                OFFSET -4.522214 -4.097441 -2.604504
                CHANNELS 3 Zrotation Xrotation Yrotation
                End Site
                {
                  OFFSET 0 0 0
                }
              }
              JOINT ThumbRight
              {
                OFFSET 3.023777 -3.529047 -1.912371
                CHANNELS 3 Zrotation Xrotation Yrotation
                End Site
                {
                  OFFSET 0 0 0
                }
              }
            }
          }
        }
      }
    }
  }
  JOINT HipLeft
  {
    OFFSET -5.489651 -0.269218 -0.239697
    CHANNELS 3 Zrotation Xrotation Yrotation
    JOINT KneeLeft
    {
      OFFSET 0.503323 -37.213482 6.485192
      CHANNELS 3 Zrotation Xrotation Yrotation
      JOINT AnkleLeft
      {
        OFFSET 8.018123 -36.821298 12.097637
        CHANNELS 3 Zrotation Xrotation Yrotation
        JOINT FootLeft
        {
          OFFSET -2.159677 -7.916716 -4.499243
          CHANNELS 3 Zrotation Xrotation Yrotation
          End Site
          {
            OFFSET 0 0 0
          }
        }
      }
    }
  }
  JOINT HipRight
  {
    OFFSET 5.959502 1.409781 -6.186031
    CHANNELS 3 Zrotation Xrotation Yrotation
    JOINT KneeRight
    {
      OFFSET 7.513928 -36.584770 -0.633400
      CHANNELS 3 Zrotation Xrotation Yrotation
      JOINT AnkleRight
      {
        OFFSET 6.767118 -37.370997 9.401838
        CHANNELS 3 Zrotation Xrotation Yrotation
        JOINT FootRight
        {
          OFFSET -0.679547 -8.110900 -5.028082
          CHANNELS 3 Zrotation Xrotation Yrotation
          End Site
          {
            OFFSET 0 0 0
          }
        }
      }
    }
  }
}
MOTION
Frames: 13
Frame Time: 0.033333
-26.860623 85.187956 333.822530 0.282649 -0.145436 34.809885 0.532627 -0.328001 -34.780626 0.768454 0.472586 0.077662 -0.407390 -4.160052 -1.224326 0.000000 0.000000 0.000000 -81.072941 5.692578 -12.861193 172.344644 58.971634 -84.547350 1.787716 6.737964 38.560099 2.511752 -0.725252 -76.262369 0.000000 0.000000 0.000000 0.000000 0.000000 0.000000 61.309695 79.422068 -21.904812 -120.668903 35.405781 -42.389259 25.578330 -15.728428 -54.177517 -16.468608 0.785613 60.512167 0.000000 0.000000 0.000000 0.000000 0.000000 0.000000 2.911956 0.682955 -34.407580 -2.402798 -3.935174 -0.909080 -2.139239 6.881814 0.464679 0.000000 0.000000 0.000000 -0.118524 -1.789288 -35.174492 -0.371260 1.100221 0.469765 -1.170049 -0.555004 0.197061 0.000000 0.000000 0.000000
-27.102027 85.726491 333.651750 0.367408 -0.126011 36.006859 0.680777 -0.324591 -35.971761 0.589660 0.298239 0.077148 1.147507 -5.976505 -1.696617 0.000000 0.000000 0.000000 -86.848444 6.745371 -13.221070 176.002616 52.797249 -84.193271 3.564731 8.185049 38.553137 7.150252 -5.741635 -79.168785 0.000000 0.000000 0.000000 0.000000 0.000000 0.000000 81.808366 76.830214 -38.509076 -132.738343 36.708299 -35.955064 22.558777 -13.992007 -56.924174 -17.608802 2.731359 63.182296 0.000000 0.000000 0.000000 0.000000 0.000000 0.000000 3.181197 0.703690 -35.562938 -2.663188 -4.221215 -0.981042 -0.674975 5.405199 -0.028575 0.000000 0.000000 0.000000 -0.320462 -2.168137 -36.455244 -0.546548 1.481145 0.554117 -0.901404 -0.581354 0.027871 0.000000 0.000000 0.000000
-27.301271 86.650237 333.386379 0.268253 -0.098416 36.604403 -0.156663 0.238960 -36.603846 0.857651 -0.090735 0.060757 6.107854 -6.697321 -1.771094 0.000000 0.000000 0.000000 -90.146947 6.201951 -13.826793 177.107788 46.617190 -83.442024 2.435317 10.213610 38.244054 6.646124 -14.920586 -75.887190 0.000000 0.000000 0.000000 0.000000 0.000000 0.000000 88.910736 73.633810 -42.358128 -141.945045 34.642291 -29.996013 18.569871 -11.414921 -59.047126 -14.596328 4.450518 65.011125 0.000000 0.000000 0.000000 0.000000 0.000000 0.000000 3.384169 0.604038 -36.138245 -2.818581 -4.337926 -1.030983 0.964929 3.587368 -0.482360 0.000000 0.000000 0.000000 -0.454318 -2.488289 -37.118816 -0.515087 1.763791 0.620713 -0.688266 -0.719365 -0.124206 0.000000 0.000000 0.000000
-27.524497 87.450140 333.127138 0.092355 -0.039881 37.268954 -0.049346 0.087664 -37.268884 -0.000000 0.000000 0.000000 9.513734 -6.952341 -1.617141 0.000000 0.000000 0.000000 -91.447896 3.790691 -15.827201 178.018909 41.594587 -84.627483 3.747403 10.748319 37.585558 -7.351386 -9.870666 -69.642047 0.000000 0.000000 0.000000 0.000000 0.000000 0.000000 92.237730 70.392073 -42.488290 -149.961669 32.899612 -24.408663 18.500150 -11.510413 -59.678089 -12.739370 5.338945 64.623255 0.000000 0.000000 0.000000 0.000000 0.000000 0.000000 3.749582 0.436735 -36.759362 -3.050566 -4.537374 -1.096872 2.538779 1.747073 -0.865591 0.000000 0.000000 0.000000 -0.547461 -2.934143 -37.860769 -0.520159 2.116544 0.703448 -0.506472 -0.886338 -0.268057 0.000000 0.000000 0.000000
-27.717164 88.202451 332.869068 -0.181483 0.042098 37.889565 0.117372 -0.144680 -37.889350 -0.000000 0.000000 0.000000 10.590581 -6.404193 -1.454065 0.000000 0.000000 0.000000 -94.660861 1.041158 -18.378139 178.238706 36.013643 -85.049463 2.755744 12.723488 36.788604 -9.334581 -11.354436 -67.132208 0.000000 0.000000 0.000000 0.000000 0.000000 0.000000 91.904339 68.307192 -41.059094 -155.772118 28.006462 -20.877886 19.932096 -5.329387 -61.487765 -6.334509 0.497582 65.101183 0.000000 0.000000 0.000000 0.000000 0.000000 0.000000 4.139126 0.172694 -37.332032 -3.215245 -4.730514 -1.145089 5.354631 -3.625285 -0.848586 0.000000 0.000000 0.000000 -0.589551 -3.418445 -38.555006 -0.506868 2.457231 0.780224 -0.383884 -1.191349 -0.359948 0.000000 0.000000 0.000000
-27.834551 88.800040 332.650950 -0.376275 0.085180 38.148196 0.243297 -0.299409 -38.147281 -0.000000 0.000000 0.000000 10.140694 -4.859873 -1.154982 0.000000 0.000000 0.000000 -96.185688 -0.988430 -20.160326 176.441468 31.791927 -84.696582 1.733755 13.435669 36.103634 -14.036541 -4.237348 -64.377540 0.000000 0.000000 0.000000 0.000000 0.000000 0.000000 90.620216 66.980389 -39.335569 -158.103847 24.513075 -19.509811 22.845922 -6.312563 -60.849450 -8.240625 -4.435831 65.676957 0.000000 0.000000 0.000000 0.000000 0.000000 0.000000 4.363722 -0.011605 -37.562375 -3.253755 -4.866811 -1.163932 3.796376 -0.272133 -1.002760 0.000000 0.000000 0.000000 -0.648331 -3.722645 -38.867763 -0.450740 2.697260 0.830776 -0.199797 -1.393507 -0.479563 0.000000 0.000000 0.000000
-27.861137 89.158973 332.490857 -0.412883 0.092322 38.206047 0.267344 -0.327908 -38.204950 -0.000000 0.000000 0.000000 10.624018 -3.548567 -0.876486 0.000000 0.000000 0.000000 -96.582447 -3.460959 -21.961690 174.398960 28.294289 -85.230972 0.038412 13.071003 35.904923 -15.777729 3.057272 -62.639500 0.000000 0.000000 0.000000 0.000000 0.000000 0.000000 89.465840 64.730409 -37.277818 -160.324165 19.669565 -18.421609 23.200837 -5.622404 -60.348971 -10.741192 -6.607807 66.344306 0.000000 0.000000 0.000000 0.000000 0.000000 0.000000 4.346417 -0.033755 -37.625465 -3.171384 -4.893586 -1.147885 3.753809 -0.599979 -0.895432 0.000000 0.000000 0.000000 -0.785290 -3.798823 -38.958354 -0.315260 2.832182 0.862206 -0.192683 -1.686324 -0.496419 0.000000 0.000000 0.000000
-27.872831 89.238664 332.400611 -0.412217 0.099096 38.051639 0.263527 -0.332110 -38.050518 -0.000000 0.000000 0.000000 10.853934 -2.357204 -0.635058 0.000000 0.000000 0.000000 -95.226468 -5.832800 -23.103004 173.175899 27.145487 -86.843312 -0.630101 7.338917 36.138151 -14.092332 10.884348 -60.955350 0.000000 0.000000 0.000000 0.000000 0.000000 0.000000 87.741117 62.889798 -35.083403 -161.102018 14.323770 -18.445082 24.003763 -2.629988 -60.359560 -10.439762 -9.564052 66.483808 0.000000 0.000000 0.000000 0.000000 0.000000 0.000000 4.270263 -0.065453 -37.476793 -3.085313 -4.825496 -1.118910 3.437128 -0.548255 -0.767406 0.000000 0.000000 0.000000 -0.833139 -3.805043 -38.811548 -0.249662 2.800489 0.860048 -0.240954 -1.883382 -0.451580 0.000000 0.000000 0.000000
-27.870540 89.100828 332.386290 -0.409213 0.098619 37.905410 0.262296 -0.329215 -37.904304 -0.000000 0.000000 0.000000 11.097761 -1.087044 -0.383323 0.000000 0.000000 0.000000 -90.933953 -7.927909 -22.957476 169.731167 27.424385 -87.951040 -0.784204 1.148713 36.414846 -11.848400 17.570369 -59.882831 0.000000 0.000000 0.000000 0.000000 0.000000 0.000000 85.070132 61.290645 -32.422265 -160.938939 9.485315 -18.662540 24.137015 0.002912 -60.434018 -11.477061 -11.951620 67.173862 0.000000 0.000000 0.000000 0.000000 0.000000 0.000000 4.181204 -0.107618 -37.337038 -2.966142 -4.740263 -1.077919 2.322181 -0.322144 -0.241893 0.000000 0.000000 0.000000 -0.801667 -3.754112 -38.652222 -0.184055 2.580641 0.829945 -0.385533 -1.649940 -0.381072 0.000000 0.000000 0.000000
-27.901894 88.934874 332.365821 -0.411575 0.074941 37.768278 0.279452 -0.311316 -37.767249 -0.000000 0.000000 0.000000 11.318159 0.230747 -0.127669 0.000000 0.000000 0.000000 -85.128123 -9.390294 -21.802288 164.698999 28.416156 -88.169717 -0.748292 -3.875124 36.666814 -9.803072 23.395173 -59.575996 0.000000 0.000000 0.000000 0.000000 0.000000 0.000000 81.648680 59.853392 -29.436062 -159.886740 4.940706 -19.120800 23.118754 2.866730 -60.484278 -13.678897 -13.173765 68.110944 0.000000 0.000000 0.000000 0.000000 0.000000 0.000000 4.098291 -0.207336 -37.200135 -2.885641 -4.536134 -1.031979 1.310696 -0.047034 0.187374 0.000000 0.000000 0.000000 -0.698406 -3.706237 -38.497148 -0.216913 2.441919 0.807430 -0.446211 -1.759218 -0.321581 0.000000 0.000000 0.000000
-27.918242 88.639562 332.379707 -0.413184 0.013935 37.622323 0.318759 -0.263265 -37.621541 -0.000000 0.000000 0.000000 11.387486 1.265557 0.072079 0.000000 0.000000 0.000000 -81.173725 -9.714262 -20.639883 160.395531 28.980684 -87.284076 -1.871857 -6.444212 36.834690 -6.645133 29.524624 -61.210084 0.000000 0.000000 0.000000 0.000000 0.000000 0.000000 78.491993 58.666250 -26.854531 -158.290471 1.191685 -19.764747 21.169021 5.198412 -60.112973 -17.438741 -11.778099 68.325723 0.000000 0.000000 0.000000 0.000000 0.000000 0.000000 4.021391 -0.271514 -37.059904 -2.794601 -4.294846 -0.978879 0.369153 0.066261 0.612437 0.000000 0.000000 0.000000 -0.559706 -3.619242 -38.329579 -0.277233 2.357195 0.789578 -0.466184 -1.985477 -0.276684 0.000000 0.000000 0.000000
-27.939797 88.402176 332.405788 -0.438217 -0.004125 37.347924 0.350872 -0.262565 -37.347135 -0.000000 0.000000 0.000000 11.164717 1.861065 0.194773 0.000000 0.000000 0.000000 -78.290636 -9.169533 -19.437590 156.827106 29.451926 -85.799522 -2.204109 -7.079780 36.931620 -4.779995 34.173164 -63.171206 0.000000 0.000000 0.000000 0.000000 0.000000 0.000000 75.922326 57.976227 -24.928042 -156.336717 -0.868396 -20.448647 18.781399 5.412645 -59.004577 -21.343278 -8.237386 67.999746 0.000000 0.000000 0.000000 0.000000 0.000000 0.000000 3.970724 -0.339386 -36.787834 -2.828606 -4.039441 -0.961751 -0.098372 0.203244 0.827896 0.000000 0.000000 0.000000 -0.386634 -3.556625 -38.024633 -0.362172 2.265073 0.767292 -0.407380 -2.261003 -0.274398 0.000000 0.000000 0.000000
-27.962031 88.225019 332.427514 -0.457911 -0.001250 37.107558 0.365943 -0.275265 -37.106684 -0.000000 0.000000 0.000000 10.884063 2.153205 0.261747 0.000000 0.000000 0.000000 -77.158909 -7.772627 -18.435546 153.709194 28.913036 -83.349732 -4.616449 -5.209172 37.168768 -3.787115 31.798917 -63.394612 0.000000 0.000000 0.000000 0.000000 0.000000 0.000000 74.100170 57.624738 -23.639810 -155.394309 -1.862642 -20.579512 18.188547 4.886911 -58.527898 -23.142386 -4.690695 66.963913 0.000000 0.000000 0.000000 0.000000 0.000000 0.000000 3.933250 -0.367667 -36.551319 -2.866595 -3.874554 -0.955849 -0.146839 0.307765 0.830850 0.000000 0.000000 0.000000 -0.240813 -3.511791 -37.756196 -0.432218 2.175855 0.747997 -0.379893 -2.515566 -0.263566 0.000000 0.000000 0.000000
